<svg xmlns="http://www.w3.org/2000/svg" xmlns:xlink="http://www.w3.org/1999/xlink" shape-rendering="geometricPrecision" width="1024" height="1024" viewBox="0 0 1024 1024">

    <g id="camera" transform="translate(512.000000, 512.000000) scale(1.000000, -1.000000) rotate(0.0) translate(0.0, 0.0)">
        <g id="bkgcircle" class="curveentity2" transform="translate(0.0, 0.0) rotate(0.0) scale(512.000000, 512.000000)">
            <g id="fff7d5" class="materialsolid" stroke="none" fill-opacity="1.000000" fill="#fff7d5">
                <path id="circle" class="curve2" fill-rule="evenodd" d="M 0.985000 0.0 C 0.985000 0.544000,0.544000 0.985000,0.0 0.985000 C -0.544000 0.985000,-0.985000 0.544000,-0.985000 0.0 C -0.985000 -0.544000,-0.544000 -0.985000,0.0 -0.985000 C 0.544000 -0.985000,0.985000 -0.544000,0.985000 0.0 Z" />
            </g>
            <g id="202020" class="materialsolid" stroke="none" fill-opacity="1.000000" fill="#202020">
                <path id="circle" class="curve2" fill-rule="evenodd" d="M 0.911124 0.0 C 0.911124 0.503200,0.503200 0.911124,0.0 0.911124 C -0.503200 0.911124,-0.911124 0.503200,-0.911124 0.0 C -0.911124 -0.503200,-0.503200 -0.911124,0.0 -0.911124 C 0.503200 -0.911124,0.911124 -0.503200,0.911124 0.0 Z" />
            </g>
        </g>

        <g id="debugcurveentity" class="curveentity2" transform="translate(0.0, 0.0) rotate(0.0) scale(512.000000, 512.000000)">
            <g id="fff7d5" class="materialsolid" stroke="none" fill-opacity="1.000000" fill="#fff7d5">
                <path id="debugcurve01" class="curve2" fill-rule="evenodd" d="M 0.290235 -0.580346 C 0.409117 -0.580346,0.505552 -0.483910,0.505552 -0.365029 C 0.505552 -0.295812,0.472861 -0.234206,0.422082 -0.194811 C 0.498815 -0.166862,0.553635 -0.093245,0.553635 -0.006870 C 0.553635 0.103529,0.464079 0.193084,0.353680 0.193084 C 0.291310 0.193084,0.228940 0.193084,0.166571 0.193084 C 0.159972 0.193084,0.152572 0.200483,0.152572 0.207083 C 0.152572 0.268470,0.152572 0.329856,0.152572 0.391242 C 0.152572 0.399881,0.156327 0.409067,0.162379 0.415230 C 0.198437 0.451953,0.234492 0.488678,0.270549 0.525401 C 0.275193 0.530130,0.275146 0.540602,0.270458 0.545289 C 0.258753 0.556993,0.247051 0.568696,0.235348 0.580399 C 0.230680 0.585066,0.220214 0.585066,0.215547 0.580400 C 0.171972 0.536831,0.128396 0.493263,0.084818 0.449694 C 0.078722 0.443597,0.074918 0.434418,0.074918 0.425795 C 0.074918 0.348224,0.074918 0.270655,0.074918 0.193084 C 0.074918 0.078817,0.074918 -0.035447,0.074918 -0.149712 C 0.074918 -0.221484,0.074918 -0.293256,0.074918 -0.365029 C 0.074918 -0.483910,0.171353 -0.580346,0.290235 -0.580346 Z" />
            </g>
            <g id="202020" class="materialsolid" stroke="none" fill-opacity="1.000000" fill="#202020">
                <path id="debugcurve02" class="curve2" fill-rule="evenodd" d="M 0.152572 -0.366369 C 0.152572 -0.323271,0.152572 -0.280171,0.152572 -0.237070 C 0.152572 -0.230471,0.159972 -0.223071,0.166571 -0.223071 C 0.209671 -0.223071,0.252770 -0.223071,0.295870 -0.223071 C 0.374989 -0.223071,0.439169 -0.287250,0.439169 -0.366369 C 0.439169 -0.445488,0.374989 -0.509669,0.295870 -0.509669 C 0.216752 -0.509669,0.152572 -0.445488,0.152572 -0.366369 Z" />
            </g>
            <g id="202020" class="materialsolid" stroke="none" fill-opacity="1.000000" fill="#202020">
                <path id="debugcurve03" class="curve2" fill-rule="evenodd" d="M 0.152572 0.102433 C 0.152572 0.109031,0.159972 0.116433,0.166571 0.116433 C 0.226469 0.116433,0.286368 0.116433,0.346266 0.116433 C 0.414344 0.116433,0.469569 0.061208,0.469569 -0.006870 C 0.469569 -0.074950,0.414344 -0.130173,0.346266 -0.130173 C 0.286368 -0.130173,0.226469 -0.130173,0.166571 -0.130173 C 0.159972 -0.130173,0.152572 -0.122773,0.152572 -0.116173 C 0.152572 -0.043304,0.152572 0.029563,0.152572 0.102433 Z" />
            </g>
            <g id="fff7d5" class="materialsolid" stroke="none" fill-opacity="1.000000" fill="#fff7d5">
                <path id="debugcurve04" class="curve2" fill-rule="evenodd" d="M -0.074918 -0.365029 C -0.074918 -0.293256,-0.074918 -0.221484,-0.074918 -0.149712 C -0.074918 -0.035447,-0.074918 0.078817,-0.074918 0.193084 C -0.074918 0.270655,-0.074918 0.348224,-0.074918 0.425795 C -0.074918 0.434418,-0.078722 0.443597,-0.084818 0.449694 C -0.128396 0.493263,-0.171972 0.536831,-0.215547 0.580400 C -0.220214 0.585066,-0.230680 0.585066,-0.235348 0.580399 C -0.247051 0.568696,-0.258753 0.556993,-0.270458 0.545289 C -0.275146 0.540602,-0.275193 0.530130,-0.270549 0.525401 C -0.234492 0.488678,-0.198437 0.451953,-0.162379 0.415230 C -0.156327 0.409067,-0.152572 0.399881,-0.152572 0.391242 C -0.152572 0.329856,-0.152572 0.268470,-0.152572 0.207083 C -0.152572 0.200483,-0.159972 0.193084,-0.166571 0.193084 C -0.228940 0.193084,-0.291310 0.193084,-0.353680 0.193084 C -0.464079 0.193084,-0.553635 0.103529,-0.553635 -0.006870 C -0.553635 -0.093245,-0.498815 -0.166862,-0.422082 -0.194811 C -0.472861 -0.234206,-0.505552 -0.295812,-0.505552 -0.365029 C -0.505552 -0.483910,-0.409117 -0.580346,-0.290235 -0.580346 C -0.171353 -0.580346,-0.074918 -0.483910,-0.074918 -0.365029 Z" />
            </g>
            <g id="202020" class="materialsolid" stroke="none" fill-opacity="1.000000" fill="#202020">
                <path id="debugcurve05" class="curve2" fill-rule="evenodd" d="M -0.295870 -0.509669 C -0.374989 -0.509669,-0.439169 -0.445488,-0.439169 -0.366369 C -0.439169 -0.287250,-0.374989 -0.223071,-0.295870 -0.223071 C -0.252770 -0.223071,-0.209671 -0.223071,-0.166571 -0.223071 C -0.159972 -0.223071,-0.152572 -0.230471,-0.152572 -0.237070 C -0.152572 -0.280171,-0.152572 -0.323271,-0.152572 -0.366369 C -0.152572 -0.445488,-0.216752 -0.509669,-0.295870 -0.509669 Z" />
            </g>
            <g id="202020" class="materialsolid" stroke="none" fill-opacity="1.000000" fill="#202020">
                <path id="debugcurve06" class="curve2" fill-rule="evenodd" d="M -0.152572 -0.116173 C -0.152572 -0.122773,-0.159972 -0.130173,-0.166571 -0.130173 C -0.226469 -0.130173,-0.286368 -0.130173,-0.346266 -0.130173 C -0.414344 -0.130173,-0.469569 -0.074950,-0.469569 -0.006870 C -0.469569 0.061208,-0.414344 0.116433,-0.346266 0.116433 C -0.286368 0.116433,-0.226469 0.116433,-0.166571 0.116433 C -0.159972 0.116433,-0.152572 0.109031,-0.152572 0.102433 C -0.152572 0.029563,-0.152572 -0.043304,-0.152572 -0.116173 Z" />
            </g>
        </g>

    </g>
</svg>