<svg xmlns="http://www.w3.org/2000/svg" xmlns:xlink="http://www.w3.org/1999/xlink" shape-rendering="geometricPrecision" width="1024" height="1024" viewBox="0 0 1024 1024">

    <g id="camera" transform="translate(512.000000, 512.000000) scale(1.000000, -1.000000) rotate(0.0) translate(0.0, 0.0)">
        <g id="bkgcircle" class="curveentity2" transform="translate(0.0, 0.0) rotate(0.0) scale(512.000000, 512.000000)">
            <g id="fff7d5" class="materialsolid" stroke="none" fill-opacity="1.000000" fill="#fff7d5">
                <path id="circle" class="curve2" fill-rule="evenodd" d="M 0.985000 0.0 C 0.985000 0.544000,0.544000 0.985000,0.0 0.985000 C -0.544000 0.985000,-0.985000 0.544000,-0.985000 0.0 C -0.985000 -0.544000,-0.544000 -0.985000,0.0 -0.985000 C 0.544000 -0.985000,0.985000 -0.544000,0.985000 0.0 Z" />
            </g>
            <g id="202020" class="materialsolid" stroke="none" fill-opacity="1.000000" fill="#202020">
                <path id="circle" class="curve2" fill-rule="evenodd" d="M 0.911124 0.0 C 0.911124 0.503200,0.503200 0.911124,0.0 0.911124 C -0.503200 0.911124,-0.911124 0.503200,-0.911124 0.0 C -0.911124 -0.503200,-0.503200 -0.911124,0.0 -0.911124 C 0.503200 -0.911124,0.911124 -0.503200,0.911124 0.0 Z" />
            </g>
        </g>

        <g id="playcurveentity" class="curveentity2" transform="translate(0.0, 0.0) rotate(0.0) scale(512.000000, 512.000000)">
            <g id="fff7d5" class="materialsolid" stroke="none" fill-opacity="1.000000" fill="#fff7d5">
                <path id="playcurve" class="curve2" fill-rule="evenodd" d="M -0.214705 0.431879 C -0.232026 0.441879,-0.266667 0.421880,-0.266667 0.401879 C -0.266667 0.133959,-0.266667 -0.133959,-0.266667 -0.401879 C -0.266667 -0.421880,-0.232026 -0.441879,-0.214705 -0.431879 C 0.017321 -0.297919,0.249345 -0.163959,0.481371 -0.029999 C 0.498691 -0.019999,0.498691 0.019999,0.481371 0.029999 C 0.249345 0.163959,0.017321 0.297919,-0.214705 0.431879 Z" />
            </g>
        </g>

    </g>
</svg>