<svg xmlns="http://www.w3.org/2000/svg" xmlns:xlink="http://www.w3.org/1999/xlink" shape-rendering="geometricPrecision" width="1024" height="1024" viewBox="0 0 1024 1024">

    <g id="camera" transform="translate(512.000000, 512.000000) scale(1.000000, -1.000000) rotate(0.0) translate(0.0, 0.0)">
        <g id="bkgcircle" class="curveentity2" transform="translate(0.0, 0.0) rotate(0.0) scale(512.000000, 512.000000)">
            <g id="fff7d5" class="materialsolid" stroke="none" fill-opacity="1.000000" fill="#fff7d5">
                <path id="circle" class="curve2" fill-rule="evenodd" d="M 0.985000 0.0 C 0.985000 0.544000,0.544000 0.985000,0.0 0.985000 C -0.544000 0.985000,-0.985000 0.544000,-0.985000 0.0 C -0.985000 -0.544000,-0.544000 -0.985000,0.0 -0.985000 C 0.544000 -0.985000,0.985000 -0.544000,0.985000 0.0 Z" />
            </g>
            <g id="202020" class="materialsolid" stroke="none" fill-opacity="1.000000" fill="#202020">
                <path id="circle" class="curve2" fill-rule="evenodd" d="M 0.911124 0.0 C 0.911124 0.503200,0.503200 0.911124,0.0 0.911124 C -0.503200 0.911124,-0.911124 0.503200,-0.911124 0.0 C -0.911124 -0.503200,-0.503200 -0.911124,0.0 -0.911124 C 0.503200 -0.911124,0.911124 -0.503200,0.911124 0.0 Z" />
            </g>
        </g>

        <g id="stepleftentity" class="curveentity2" transform="translate(0.0, 0.0) rotate(0.0) scale(512.000000, 512.000000)">
            <g id="fff7d5" class="materialsolid" stroke="none" fill-opacity="1.000000" fill="#fff7d5">
                <path id="stepleftcurve01" class="curve2" fill-rule="evenodd" d="M -0.094363 0.325859 C -0.107695 0.332926,-0.133568 0.318315,-0.133568 0.303225 C -0.133568 0.101075,-0.133568 -0.101075,-0.133568 -0.303225 C -0.133568 -0.318315,-0.107695 -0.332926,-0.094363 -0.325859 C 0.096368 -0.224784,0.287099 -0.123710,0.477830 -0.022634 C 0.491165 -0.015569,0.491165 0.015569,0.477830 0.022634 C 0.287099 0.123710,0.096368 0.224784,-0.094363 0.325859 Z" />
            </g>
            <g id="fff7d5" class="materialsolid" stroke="none" fill-opacity="1.000000" fill="#fff7d5">
                <path id="stepleftcurve02" class="curve2" fill-rule="evenodd" d="M -0.333970 -0.299246 C -0.333970 -0.313529,-0.317952 -0.329545,-0.303668 -0.329546 C -0.297760 -0.329545,-0.291851 -0.329545,-0.285944 -0.329545 C -0.271659 -0.329545,-0.255643 -0.313529,-0.255643 -0.299246 C -0.255643 -0.099749,-0.255643 0.099749,-0.255643 0.299246 C -0.255643 0.313529,-0.271659 0.329546,-0.285944 0.329546 C -0.291851 0.329546,-0.297760 0.329546,-0.303668 0.329546 C -0.317952 0.329546,-0.333970 0.313529,-0.333970 0.299246 C -0.333970 0.099749,-0.333970 -0.099749,-0.333970 -0.299246 Z" />
            </g>
        </g>

    </g>
</svg>