<svg xmlns="http://www.w3.org/2000/svg" xmlns:xlink="http://www.w3.org/1999/xlink" shape-rendering="geometricPrecision" width="1024" height="1024" viewBox="0 0 1024 1024">

    <g id="camera" transform="translate(512.000000, 512.000000) scale(1.000000, -1.000000) rotate(0.0) translate(0.0, 0.0)">
        <g id="bkgcircle" class="curveentity2" transform="translate(0.0, 0.0) rotate(0.0) scale(512.000000, 512.000000)">
            <g id="fff7d5" class="materialsolid" stroke="none" fill-opacity="1.000000" fill="#fff7d5">
                <path id="circle" class="curve2" fill-rule="evenodd" d="M 0.985000 0.0 C 0.985000 0.544000,0.544000 0.985000,0.0 0.985000 C -0.544000 0.985000,-0.985000 0.544000,-0.985000 0.0 C -0.985000 -0.544000,-0.544000 -0.985000,0.0 -0.985000 C 0.544000 -0.985000,0.985000 -0.544000,0.985000 0.0 Z" />
            </g>
            <g id="202020" class="materialsolid" stroke="none" fill-opacity="1.000000" fill="#202020">
                <path id="circle" class="curve2" fill-rule="evenodd" d="M 0.911124 0.0 C 0.911124 0.503200,0.503200 0.911124,0.0 0.911124 C -0.503200 0.911124,-0.911124 0.503200,-0.911124 0.0 C -0.911124 -0.503200,-0.503200 -0.911124,0.0 -0.911124 C 0.503200 -0.911124,0.911124 -0.503200,0.911124 0.0 Z" />
            </g>
        </g>

        <g id="steprightentity" class="curveentity2" transform="translate(0.0, 0.0) rotate(0.0) scale(512.000000, 512.000000)">
            <g id="fff7d5" class="materialsolid" stroke="none" fill-opacity="1.000000" fill="#fff7d5">
                <path id="stepright" class="curve2" fill-rule="evenodd" d="M 0.266768 -0.028888 C 0.266768 -0.119007,0.266768 -0.209126,0.266768 -0.299246 C 0.266768 -0.313529,0.282786 -0.329546,0.297070 -0.329546 C 0.302978 -0.329546,0.308886 -0.329545,0.314794 -0.329545 C 0.329077 -0.329545,0.345095 -0.313529,0.345095 -0.299246 C 0.345095 -0.099749,0.345095 0.099749,0.345095 0.299246 C 0.345095 0.313529,0.329077 0.329545,0.314794 0.329545 C 0.308886 0.329545,0.302978 0.329546,0.297070 0.329546 C 0.282786 0.329546,0.266768 0.313529,0.266768 0.299246 C 0.266768 0.209126,0.266768 0.119007,0.266768 0.028888 C 0.079971 0.127878,-0.106826 0.226870,-0.293624 0.325859 C -0.306957 0.332926,-0.332829 0.318315,-0.332829 0.303225 C -0.332829 0.101075,-0.332829 -0.101075,-0.332829 -0.303225 C -0.332829 -0.318315,-0.306957 -0.332926,-0.293624 -0.325859 C -0.106826 -0.226870,0.079971 -0.127878,0.266768 -0.028888 Z" />
            </g>
        </g>

    </g>
</svg>